# xmcd CD database file
#
# Track frame offsets:
#	150
#	27135
#	43920
#	66009
#	85554
#	106419
#	135900
#	154197
#	186078
#
# Disc length: 3192 seconds
#
# Revision: 0
# Processed by: cddbd v1.5.2PL0 Copyright (c) Steve Scherf et al.
# Submitted via: CDex 1.51
#
DISCID=690c7609
DTITLE=David Modica - Stillness and Movement
DYEAR=2008
DGENRE=New Age
TTITLE0=Tapestry
TTITLE1=First Breath
TTITLE2=Butterfly Dreams
TTITLE3=Because
TTITLE4=Last Breath
TTITLE5=Balance
TTITLE6=Touch
TTITLE7=Long Ago
TTITLE8=Journey
EXTD=YEAR: 2008
EXTT0=
EXTT1=
EXTT2=
EXTT3=
EXTT4=
EXTT5=
EXTT6=
EXTT7=
EXTT8=
PLAYORDER=
